<?xml version="1.0" encoding="UTF-8"?>
<svg xmlns="http://www.w3.org/2000/svg" viewBox="0 0 48 48" width="48" height="48">
  <!-- Background circle -->
  <circle cx="24" cy="24" r="23" fill="#1565C0" opacity="0.1"/>
  <!-- Shield -->
  <path d="M24 4L8 11v12c0 10.5 7 20 16 23 9-3 16-12.5 16-23V11L24 4z" fill="#1976D2"/>
  <path d="M24 4L8 11v12c0 10.5 7 20 16 23 9-3 16-12.5 16-23V11L24 4z" fill="none" stroke="#0D47A1" stroke-width="1"/>
  <!-- Lock icon inside -->
  <rect x="18" y="22" width="12" height="10" rx="1.5" fill="white" opacity="0.9"/>
  <path d="M20 22v-3a4 4 0 018 0v3" fill="none" stroke="white" stroke-width="2.5" stroke-linecap="round"/>
  <circle cx="24" cy="27" r="1.5" fill="#1976D2"/>
  <line x1="24" y1="28.5" x2="24" y2="30" stroke="#1976D2" stroke-width="1.5" stroke-linecap="round"/>
</svg>
